<?xml version="1.0" encoding="utf-8"?>
<!-- Generator: Adobe Illustrator 22.1.0, SVG Export Plug-In . SVG Version: 6.00 Build 0)  -->
<svg version="1.1" id="Capa_1" xmlns="http://www.w3.org/2000/svg" xmlns:xlink="http://www.w3.org/1999/xlink" x="0px" y="0px"
	 viewBox="0 0 422.4 422.4" style="enable-background:new 0 0 422.4 422.4;" xml:space="preserve">
<style type="text/css">
	.st0{fill:#F0F0F0;}
	.st1{fill:#D80027;}
	.st2{fill:#0052B4;}
</style>
<g>
	<path class="st0" d="M416,211.2C416,324.3,324.3,416,211.2,416C98.1,416,6.4,324.3,6.4,211.2C6.4,98.1,98.1,6.4,211.2,6.4
		C324.3,6.4,416,98.1,416,211.2L416,211.2z M416,211.2"/>
	<path class="st1" d="M202.3,211.2H416c0-18.5-2.5-36.4-7.1-53.4H202.3V211.2z M202.3,211.2"/>
	<path class="st1" d="M202.3,104.3h183.6c-12.5-20.5-28.6-38.5-47.3-53.4H202.3V104.3z M202.3,104.3"/>
	<path class="st1" d="M211.2,416c48.2,0,92.5-16.7,127.5-44.5h-255C118.7,399.3,163,416,211.2,416L211.2,416z M211.2,416"/>
	<path class="st1" d="M36.5,318.1h349.5c10.1-16.4,17.9-34.4,23-53.4H13.5C18.6,283.7,26.4,301.6,36.5,318.1L36.5,318.1z
		 M36.5,318.1"/>
	<path class="st2" d="M101.3,38.4h18.7L102.6,51l6.6,20.4L91.8,58.8L74.5,71.4l5.7-17.6C64.9,66.5,51.5,81.4,40.5,98h6l-11.1,8
		c-1.7,2.9-3.4,5.8-5,8.8l5.3,16.2l-9.8-7.2c-2.4,5.2-4.7,10.5-6.7,15.9l5.8,17.9h21.5l-17.4,12.6l6.6,20.4l-17.4-12.6L8,185.7
		c-1,8.4-1.6,16.9-1.6,25.5h204.8V6.4C170.7,6.4,133,18.1,101.3,38.4L101.3,38.4z M109.2,190.7l-17.4-12.6l-17.4,12.6l6.6-20.4
		l-17.4-12.6h21.5l6.6-20.4l6.6,20.4h21.5l-17.4,12.6L109.2,190.7z M102.6,110.7l6.6,20.4l-17.4-12.6l-17.4,12.6l6.6-20.4L63.8,98
		h21.5l6.6-20.4L98.5,98h21.5L102.6,110.7z M182.7,190.7l-17.4-12.6l-17.4,12.6l6.6-20.4l-17.4-12.6h21.5l6.6-20.4l6.6,20.4h21.5
		L176,170.3L182.7,190.7z M176,110.7l6.6,20.4l-17.4-12.6l-17.4,12.6l6.6-20.4L137.2,98h21.5l6.6-20.4l6.6,20.4h21.5L176,110.7z
		 M176,51l6.6,20.4l-17.4-12.6l-17.4,12.6l6.6-20.4l-17.4-12.6h21.5l6.6-20.4l6.6,20.4h21.5L176,51z M176,51"/>
</g>
</svg>
