<?xml version="1.0" encoding="utf-8"?>
<!-- Generator: Adobe Illustrator 22.1.0, SVG Export Plug-In . SVG Version: 6.00 Build 0)  -->
<svg version="1.1" id="Capa_1" xmlns="http://www.w3.org/2000/svg" xmlns:xlink="http://www.w3.org/1999/xlink" x="0px" y="0px"
	 viewBox="0 0 424.4 424.4" style="enable-background:new 0 0 424.4 424.4;" xml:space="preserve">
<style type="text/css">
	.st0{fill:#F0F0F0;}
	.st1{fill:#338AF3;}
	.st2{fill:#FFDA44;}
</style>
<g>
	<path class="st0" d="M417,212.2C417,325.3,325.3,417,212.2,417C99.1,417,7.4,325.3,7.4,212.2C7.4,99.1,99.1,7.4,212.2,7.4
		C325.3,7.4,417,99.1,417,212.2L417,212.2z M417,212.2"/>
	<path class="st1" d="M212.2,7.4C131,7.4,60.8,54.7,27.7,123.2h369C363.6,54.7,293.4,7.4,212.2,7.4L212.2,7.4z M212.2,7.4"/>
	<path class="st1" d="M212.2,417c81.2,0,151.4-47.3,184.5-115.8h-369C60.8,369.7,131,417,212.2,417L212.2,417z M212.2,417"/>
	<path class="st2" d="M273.4,212.2l-25,11.8l13.3,24.2l-27.2-5.2l-3.4,27.4l-18.9-20.2l-18.9,20.2l-3.4-27.4l-27.2,5.2L176,224
		l-25-11.8l25-11.8l-13.3-24.2l27.2,5.2l3.4-27.4l18.9,20.2l18.9-20.2l3.4,27.4l27.2-5.2l-13.3,24.2L273.4,212.2z M273.4,212.2"/>
</g>
</svg>
