<?xml version="1.0" encoding="utf-8"?>
<!-- Generator: Adobe Illustrator 22.1.0, SVG Export Plug-In . SVG Version: 6.00 Build 0)  -->
<svg version="1.1" id="Capa_1" xmlns="http://www.w3.org/2000/svg" xmlns:xlink="http://www.w3.org/1999/xlink" x="0px" y="0px"
	 viewBox="0 0 419.6 419.6" style="enable-background:new 0 0 419.6 419.6;" xml:space="preserve">
<style type="text/css">
	.st0{fill:#6DA544;}
	.st1{fill:#FFDA44;}
	.st2{fill:#F0F0F0;}
	.st3{fill:#0052B4;}
</style>
<g>
	<path class="st0" d="M414.6,209.8c0,113.1-91.7,204.8-204.8,204.8C96.7,414.6,5,322.9,5,209.8C5,96.7,96.7,5,209.8,5
		C322.9,5,414.6,96.7,414.6,209.8L414.6,209.8z M414.6,209.8"/>
	<path class="st1" d="M209.8,85.1L379,209.8L209.8,334.5L40.6,209.8L209.8,85.1z M209.8,85.1"/>
	<path class="st2" d="M281,209.8c0,39.3-31.9,71.2-71.2,71.2c-39.3,0-71.2-31.9-71.2-71.2c0-39.3,31.9-71.2,71.2-71.2
		C249.1,138.6,281,170.5,281,209.8L281,209.8z M281,209.8"/>
	<path class="st3" d="M174.2,205.3c-12.4,0-24.3,1.9-35.6,5.4c0.5,38.9,32.2,70.3,71.2,70.3c24.1,0,45.4-12,58.3-30.4
		C246.1,223.1,212.2,205.3,174.2,205.3L174.2,205.3z M174.2,205.3"/>
	<path class="st3" d="M279.7,223.4c0.9-4.4,1.3-9,1.3-13.6c0-39.3-31.9-71.2-71.2-71.2c-29.4,0-54.6,17.8-65.5,43.1
		c9.6-2,19.6-3,29.8-3C215.6,178.6,253,195.8,279.7,223.4L279.7,223.4z M279.7,223.4"/>
</g>
</svg>
